<svg width="370" height="73" viewBox="0 0 370 73" fill="none" xmlns="http://www.w3.org/2000/svg">
<g clip-path="url(#clip0_33_10)">
<path d="M55.875 34.875V40.1875H35.5V53.6875H58.5625V59H29.875V17.125H58.5625V22.4375H35.5V34.875H55.875ZM85.8125 16.125C90.5208 16.125 94.5 17.0833 97.75 19C101.042 20.9167 103.542 23.5208 105.25 26.8125C107 30.0625 107.875 33.75 107.875 37.875C107.875 42 107 45.7083 105.25 49C103.542 52.25 101.042 54.8333 97.75 56.75C94.5 58.6667 90.5208 59.625 85.8125 59.625C82.9375 59.625 80.2917 59.4792 77.875 59.1875C75.4583 58.8958 72.9792 58.5208 70.4375 58.0625V17.6875C72.9792 17.2292 75.4583 16.8542 77.875 16.5625C80.2917 16.2708 82.9375 16.125 85.8125 16.125ZM85.8125 21.4375C84.3125 21.4375 82.7083 21.5 81 21.625C79.2917 21.7083 77.6458 21.8542 76.0625 22.0625V53.6875C77.6458 53.8542 79.2917 54 81 54.125C82.7083 54.25 84.3125 54.3125 85.8125 54.3125C89.1875 54.3125 92.0833 53.6042 94.5 52.1875C96.9583 50.7292 98.8333 48.7708 100.125 46.3125C101.458 43.8125 102.125 41 102.125 37.875C102.125 34.75 101.458 31.9583 100.125 29.5C98.8333 27 96.9583 25.0417 94.5 23.625C92.0833 22.1667 89.1875 21.4375 85.8125 21.4375ZM151.75 17V42.4375C151.75 46.0625 150.979 49.1875 149.438 51.8125C147.938 54.3958 145.896 56.375 143.312 57.75C140.729 59.125 137.792 59.8125 134.5 59.8125C131.25 59.8125 128.312 59.125 125.688 57.75C123.104 56.375 121.042 54.3958 119.5 51.8125C118 49.1875 117.25 46.0625 117.25 42.4375V17H122.875V42.25C122.875 45.0833 123.396 47.375 124.438 49.125C125.521 50.875 126.938 52.1458 128.688 52.9375C130.479 53.6875 132.417 54.0625 134.5 54.0625C136.583 54.0208 138.5 53.625 140.25 52.875C142.042 52.0833 143.458 50.8333 144.5 49.125C145.583 47.375 146.125 45.0833 146.125 42.25V17H151.75Z" fill="#F0F0F0"/>
<path d="M198.375 16.125C201.458 16.125 204.125 16.6458 206.375 17.6875C208.667 18.6875 210.438 20.0625 211.688 21.8125C212.938 23.5625 213.562 25.5833 213.562 27.875C213.562 29.9167 212.979 31.7917 211.812 33.5C210.646 35.1667 209.188 36.4167 207.438 37.25C208.688 37.5 209.917 38.0208 211.125 38.8125C212.333 39.6042 213.333 40.6875 214.125 42.0625C214.958 43.4375 215.375 45.1458 215.375 47.1875C215.375 49.5208 214.708 51.625 213.375 53.5C212.042 55.375 210.125 56.875 207.625 58C205.167 59.0833 202.25 59.625 198.875 59.625C196.292 59.625 193.583 59.4583 190.75 59.125C187.958 58.8333 185.583 58.4792 183.625 58.0625V17.6875C185.792 17.1875 188.146 16.8125 190.688 16.5625C193.271 16.2708 195.833 16.125 198.375 16.125ZM198 21.4375C196.25 21.4375 194.667 21.5 193.25 21.625C191.875 21.75 190.542 21.9375 189.25 22.1875V35.3125H199.062C201.896 35.3125 204.062 34.6042 205.562 33.1875C207.062 31.7292 207.812 30.0417 207.812 28.125C207.812 26.625 207.354 25.3958 206.438 24.4375C205.521 23.4375 204.312 22.6875 202.812 22.1875C201.354 21.6875 199.75 21.4375 198 21.4375ZM189.25 53.5625C190.75 53.8542 192.417 54.0625 194.25 54.1875C196.083 54.2708 197.583 54.3125 198.75 54.3125C201.875 54.3125 204.458 53.6667 206.5 52.375C208.583 51.0833 209.625 49.3542 209.625 47.1875C209.625 44.8958 208.604 43.1875 206.562 42.0625C204.562 40.8958 202.104 40.3125 199.188 40.3125H189.25V53.5625ZM242.562 17.125L262.125 59H255.375L251 49H231.375L226.938 59H220.188L239.75 17.125H242.562ZM241.25 26.625L233.688 43.6875H248.688L241.25 26.625ZM304.562 17.125V59H302.438L275.25 29.0625V59H269.625V17.125H271.75L298.938 47.4375V17.125H304.562ZM323.938 17.125V39.125L343.062 17.125H350.938L333.375 36.4375L352.812 59H345L329.312 40.9375L323.938 46.8125V59H318.312V17.125H323.938Z" fill="url(#paint0_linear_33_10)"/>
</g>
<defs>
<linearGradient id="paint0_linear_33_10" x1="408.17" y1="10.1" x2="322.514" y2="209.348" gradientUnits="userSpaceOnUse">
<stop stop-color="#937416"/>
<stop offset="0.179854" stop-color="#E2BF4E"/>
<stop offset="0.222027" stop-color="#B29433"/>
<stop offset="0.388086" stop-color="#CBA135"/>
<stop offset="0.435774" stop-color="#DAC471"/>
<stop offset="0.593141" stop-color="#CBA135"/>
<stop offset="0.642684" stop-color="#DAC471"/>
<stop offset="0.814633" stop-color="#B29433"/>
<stop offset="1" stop-color="#937416"/>
</linearGradient>
<clipPath id="clip0_33_10">
<rect width="370" height="73" fill="white"/>
</clipPath>
</defs>
</svg>
