<svg width="350" height="200" viewBox="0 0 350 200" fill="none" xmlns="http://www.w3.org/2000/svg">
<path d="M333.376 56.441H320.109C318.657 56.441 317.485 55.2666 317.485 53.8115V40.3517C317.485 38.8966 318.657 37.7222 320.109 37.7222H333.376C334.828 37.7222 336 38.8966 336 40.3517V53.8115C336 55.2666 334.817 56.441 333.376 56.441Z" fill="#0F0F0F"/>
<path d="M315.689 37.7218H306.675C305.69 37.7218 304.891 36.9215 304.891 35.9341V26.7877C304.891 25.8003 305.69 25 306.675 25H315.689C316.674 25 317.473 25.8003 317.473 26.7877V35.9341C317.473 36.9215 316.674 37.7218 315.689 37.7218Z" fill="#0F0F0F"/>
<path fill-rule="evenodd" clip-rule="evenodd" d="M50.916 62.4377H70.2196C90.0937 62.4377 99.3461 71.2619 99.3358 90.1887C99.3358 109.126 90.0833 117.94 70.2092 117.94H47.8249V143.768C47.8249 147.759 46.549 149.037 42.5659 149.037H41.259C37.2758 149.037 36 147.759 36 143.768V77.3837C36 67.0421 40.6055 62.4377 50.916 62.4377ZM70.2097 106.87C84.7523 106.87 87.5114 101.008 87.5114 90.1886C87.5114 76.3443 81.1737 73.642 70.2201 73.642H53.1362C49.2672 73.642 47.8358 75.0867 47.8358 78.9531V106.87H70.2097ZM124.209 81.4792C116.564 81.4792 111.762 82.4355 109.946 82.8096C106.731 83.506 105.382 84.3998 105.382 88.0688V89.1185C105.382 90.5529 105.59 91.5506 106.046 92.247C106.575 93.0681 107.436 93.4735 108.588 93.4735C109.148 93.4735 109.801 93.3799 110.579 93.1824C112.415 92.7251 118.297 91.7689 124.717 91.7689C136.262 91.7689 140.971 94.9701 140.971 102.828V109.833H126.408C107.696 109.833 98.9722 116.163 98.9722 129.737C98.9722 142.916 107.976 150.171 124.313 150.171C143.73 150.171 152.392 143.55 152.392 128.697V102.828C152.423 88.4534 143.191 81.4792 124.209 81.4792ZM140.982 128.302V119.197H126.554C114.957 119.197 110.435 122.149 110.435 129.736C110.435 136.658 114.936 140.015 124.21 140.015C138.233 140.015 140.982 135.723 140.982 128.302ZM216.683 88.7228L201.684 148.839C197.286 166.467 189.776 174.033 175.752 174.948C175.389 174.979 175.047 175 174.725 175C171.707 175 170.752 173.327 170.192 170.635L169.933 169.471C169.674 168.244 169.518 166.862 170.234 165.906C170.929 164.981 172.163 164.71 174.072 164.544C183.459 163.577 186.643 159.223 189.776 149.359C188.293 149.858 186.508 150.128 184.589 150.128C174.269 150.128 171.509 142.925 169.186 134.226L156.801 88.754C156.386 87.2157 156.116 85.6359 156.915 84.5861C157.714 83.5364 159.28 83.3909 160.857 83.3909H161.904C165.804 83.3909 167.298 84.5446 168.315 88.3174L180.575 133.394C182.162 139.017 183.749 139.974 187.732 139.974C190.979 139.974 192.877 138.965 194.226 133.426L205.044 88.3486C205.905 84.6069 207.43 83.4013 211.33 83.4013H212.502C214.069 83.4013 215.625 83.5468 216.444 84.5861C217.253 85.6047 217.035 87.1741 216.683 88.7228ZM304.86 88.4942V71.1577C304.86 63.7886 301.863 62.4583 293.782 62.4583H291.241C283.171 62.4583 280.173 63.799 280.173 71.1577V88.4007C280.163 88.4422 280.163 88.4734 280.163 88.515V92.2879C280.163 92.349 280.16 92.4101 280.158 92.4724C280.155 92.5373 280.153 92.6035 280.153 92.6724V116.744C280.153 119.685 279.592 122.024 278.42 123.843C276.221 127.242 271.865 128.78 264.894 128.79C257.934 128.78 253.578 127.231 251.379 123.843C250.217 122.024 249.646 119.675 249.646 116.734V92.6621C249.646 92.5945 249.644 92.5321 249.641 92.4698C249.639 92.4074 249.636 92.345 249.636 92.2775V88.5046C249.636 88.4838 249.633 88.4656 249.631 88.4474C249.628 88.4293 249.626 88.4111 249.626 88.3903V71.1577C249.626 63.7886 246.628 62.4583 238.558 62.4583H236.017C227.947 62.4583 224.949 63.799 224.949 71.1577V88.4942V106.735V116.734C224.949 124.061 226.609 130.276 229.793 135.276C235.954 144.973 247.883 150.139 264.842 150.139H264.905H264.967C281.926 150.139 293.855 144.973 300.016 135.276C303.211 130.276 304.86 124.061 304.86 116.734V106.735V88.4942Z" fill="#0F0F0F"/>
<path d="M313.937 81.6249L296.065 81.6145C294.115 81.6145 292.538 80.0347 292.538 78.0807L292.548 59.9542C292.548 58.0002 294.125 56.4204 296.075 56.4204L313.947 56.4308C315.897 56.4308 317.474 58.0106 317.474 59.9646L317.464 78.0911C317.474 80.0451 315.887 81.6249 313.937 81.6249Z" fill="#0F0F0F"/>
</svg>
