<svg width="350" height="200" viewBox="0 0 350 200" fill="none" xmlns="http://www.w3.org/2000/svg">
<path d="M205.194 124.405H143.797V14.8994H205.194V124.405Z" fill="white"/>
<path d="M288 69.6428C288 108.106 256.587 139.286 217.835 139.286C201.465 139.286 186.403 133.72 174.464 124.395C190.789 111.644 201.269 91.8564 201.269 69.6428C201.269 47.4291 190.789 27.6419 174.464 14.8902C186.403 5.5655 201.465 -7.96845e-05 217.835 -7.96845e-05C256.587 -7.96845e-05 288 31.1796 288 69.6428" fill="white"/>
<path d="M147.731 69.6428C147.731 47.4291 158.211 27.6419 174.531 14.8902C162.597 5.5655 147.535 -7.96845e-05 131.166 -7.96845e-05C92.4133 -7.96845e-05 61 31.1796 61 69.6428C61 108.106 92.4133 139.286 131.166 139.286C147.535 139.286 162.597 133.72 174.531 124.395C158.211 111.644 147.731 91.8564 147.731 69.6428" fill="#E2E2E2"/>
<path fill-rule="evenodd" clip-rule="evenodd" d="M120.841 172.982V183.721V194.46H116.421V191.852C115.019 193.786 112.892 195 110.001 195C104.301 195 99.8328 190.284 99.8328 183.721C99.8328 177.164 104.301 172.442 110.001 172.442C112.892 172.442 115.019 173.656 116.421 175.59V172.982H120.841ZM110.551 176.845C106.725 176.845 104.384 179.946 104.384 183.721C104.384 187.496 106.725 190.597 110.551 190.597C114.207 190.597 116.675 187.63 116.675 183.721C116.675 179.812 114.207 176.845 110.551 176.845ZM270.195 183.721C270.195 179.946 272.537 176.845 276.362 176.845C280.023 176.845 282.486 179.812 282.486 183.721C282.486 187.63 280.023 190.597 276.362 190.597C272.537 190.597 270.195 187.496 270.195 183.721ZM286.657 164.357V183.721V194.46H282.232V191.852C280.831 193.786 278.704 195 275.812 195C270.112 195 265.644 190.284 265.644 183.721C265.644 177.164 270.112 172.442 275.812 172.442C278.704 172.442 280.831 173.656 282.232 175.59V164.357H286.657ZM175.703 176.624C178.55 176.624 180.38 178.511 180.848 181.834H170.3C170.772 178.733 172.553 176.624 175.703 176.624ZM165.666 183.721C165.666 177.025 169.832 172.442 175.79 172.442C181.485 172.442 185.399 177.025 185.443 183.721C185.443 184.349 185.399 184.935 185.355 185.516L170.261 185.516C170.898 189.384 173.493 190.777 176.34 190.777C178.38 190.777 180.551 189.965 182.254 188.53L184.42 191.991C181.953 194.193 179.149 195 176.087 195C170.003 195 165.666 190.551 165.666 183.721ZM229.157 183.721C229.157 179.946 231.499 176.845 235.325 176.845C238.98 176.845 241.448 179.812 241.448 183.721C241.448 187.63 238.98 190.597 235.325 190.597C231.499 190.597 229.157 187.496 229.157 183.721ZM245.614 172.982V183.721V194.46H241.195V191.852C239.788 193.786 237.666 195 234.774 195C229.075 195 224.606 190.284 224.606 183.721C224.606 177.164 229.075 172.442 234.774 172.442C237.666 172.442 239.788 173.656 241.195 175.59V172.982H245.614ZM204.197 183.721C204.197 190.237 208.49 195 215.041 195C218.103 195 220.142 194.28 222.352 192.439L220.23 188.664C218.57 189.924 216.828 190.597 214.91 190.597C211.381 190.551 208.787 187.856 208.787 183.721C208.787 179.586 211.381 176.891 214.91 176.845C216.828 176.845 218.57 177.518 220.23 178.779L222.352 175.003C220.142 173.162 218.103 172.442 215.041 172.442C208.49 172.442 204.197 177.205 204.197 183.721ZM255.821 175.59C256.97 173.702 258.629 172.442 261.18 172.442C262.076 172.442 263.351 172.622 264.329 173.029L262.966 177.431C262.032 177.025 261.097 176.891 260.202 176.891C257.31 176.891 255.865 178.866 255.865 182.42V194.46H251.44V172.982H255.821V175.59ZM142.7 174.69C140.573 173.209 137.643 172.442 134.411 172.442C129.261 172.442 125.947 175.05 125.947 179.319C125.947 182.821 128.414 184.981 132.961 185.655L135.049 185.969C137.473 186.329 138.617 187.002 138.617 188.216C138.617 189.877 137.001 190.824 133.983 190.824C130.921 190.824 128.711 189.79 127.222 188.576L125.139 192.212C127.563 194.1 130.624 195 133.939 195C139.809 195 143.212 192.079 143.212 187.99C143.212 184.215 140.534 182.24 136.11 181.566L134.027 181.247C132.114 180.98 130.58 180.579 130.58 179.139C130.58 177.565 132.026 176.624 134.45 176.624C137.044 176.624 139.556 177.657 140.788 178.465L142.7 174.69ZM194.374 175.59C195.518 173.702 197.178 172.442 199.729 172.442C200.624 172.442 201.9 172.622 202.878 173.029L201.515 177.431C200.58 177.025 199.646 176.891 198.75 176.891C195.859 176.891 194.413 178.866 194.413 182.42V194.46H189.994V172.982H194.374V175.59ZM162.009 172.982H154.781V166.466H150.313V172.982H146.19V177.251H150.313V187.049C150.313 192.032 152.143 195 157.371 195C159.288 195 161.498 194.373 162.9 193.339L161.625 189.337C160.306 190.145 158.86 190.551 157.711 190.551C155.501 190.551 154.781 189.111 154.781 186.956V177.251H162.009V172.982ZM95.9238 180.98V194.46H91.4555V182.507C91.4555 178.866 90.0098 176.845 86.992 176.845C84.0569 176.845 82.0174 178.825 82.0174 182.554V194.46H77.549V182.507C77.549 178.866 76.0644 176.845 73.1293 176.845C70.1066 176.845 68.1499 178.825 68.1499 182.554V194.46H63.6864V172.982H68.1109V175.631C69.7708 173.116 71.893 172.442 74.0639 172.442C77.1694 172.442 79.3792 173.882 80.781 176.264C82.655 173.25 85.3322 172.396 87.9265 172.442C92.8622 172.489 95.9238 175.904 95.9238 180.98Z" fill="white"/>
</svg>
