<svg width="350" height="200" viewBox="0 0 350 200" fill="none" xmlns="http://www.w3.org/2000/svg">
<path d="M265.007 155.683C277.637 155.683 283.581 150.864 288.773 136.257L311.519 72.4585H298.35L283.096 121.817H282.829L267.576 72.5254H254.033L275.977 133.249L274.801 136.942C273.971 142.229 269.225 146.001 263.882 145.611C262.863 145.611 260.885 145.505 260.083 145.399V155.427C261.715 155.65 263.364 155.755 265.007 155.75V155.683ZM221.119 123.734C214.211 123.734 209.827 120.391 209.827 115.333C209.827 110.09 214.055 107.037 222.139 106.553L236.534 105.645V110.358C236.217 118.124 229.66 124.168 221.894 123.851C221.632 123.839 221.376 123.817 221.119 123.795V123.734ZM217.643 133.633C225.481 133.845 232.813 129.761 236.751 122.981H237.019V133.009H249.008V91.4777C249.008 79.4333 239.375 71.673 224.546 71.673C210.791 71.673 200.618 79.5392 200.245 90.3524H211.916C213.309 84.8539 218.534 81.2272 224.172 81.84C232.094 81.84 236.534 85.5335 236.534 92.3301V96.9317L220.378 97.8955C205.337 98.8035 197.203 104.959 197.203 115.667C197.192 126.525 205.593 133.694 217.638 133.694L217.643 133.633ZM148.168 60.4698H163.098C174.34 60.4698 180.763 66.4642 180.763 77.01C180.763 87.5558 174.34 93.6003 163.048 93.6003H148.168V60.4698ZM135.215 49.5507V132.992H148.168V104.547H166.101C180.708 105.333 193.181 94.1295 193.967 79.5225C194.011 78.6924 194.017 77.8679 193.983 77.0378C194.674 62.5923 183.527 50.3251 169.081 49.6287C168.229 49.5897 167.382 49.5953 166.53 49.6343L135.215 49.5507ZM92.2242 65.1216C84.7814 64.6926 78.4138 69.3499 74.8819 69.3499C71.3499 69.3499 65.8903 65.3388 60.0018 65.4502C52.2025 65.6508 45.094 69.9683 41.3224 76.7983C33.2947 90.6087 39.2333 111.054 46.9937 122.291C50.793 127.862 55.3501 133.962 61.3389 133.745C67.0101 133.533 69.2607 130.051 76.113 130.051C82.9653 130.051 84.9987 133.745 90.993 133.633C97.1991 133.527 101.11 128.062 104.92 122.491C107.606 118.547 109.695 114.229 111.126 109.678C103.812 106.48 99.0709 99.2771 99.0319 91.2939C99.1433 84.2522 102.831 77.7565 108.826 74.0629C105.004 68.6368 98.8704 65.3054 92.2354 65.0714L92.2242 65.1216ZM87.578 57.7512C84.319 61.857 79.333 64.2135 74.0908 64.1188C73.7565 59.0047 75.4947 53.9741 78.9096 50.1524C82.3079 46.2082 87.0989 43.7347 92.2799 43.25C92.6476 48.509 90.9596 53.7011 87.5669 57.7345" fill="#0F0F0F"/>
</svg>
