<svg width="350" height="200" viewBox="0 0 350 200" fill="none" xmlns="http://www.w3.org/2000/svg">
<path d="M227.438 50.0044H204.101C202.507 50.0044 201.149 51.4754 200.9 53.4742L191.463 129.347C191.275 130.844 192.19 132.194 193.38 132.194H205.356C206.469 132.194 207.421 131.164 207.595 129.762L210.273 108.256C210.519 106.253 211.88 104.782 213.473 104.782H220.857C236.231 104.782 245.099 95.3499 247.419 76.6596C248.466 68.4827 247.46 62.0579 244.44 57.5584C241.127 52.6176 235.248 50.0044 227.438 50.0044ZM230.13 77.7153C228.858 88.3324 222.46 88.3324 216.271 88.3324H212.753L215.227 68.5043C215.374 67.3059 216.186 66.4233 217.145 66.4233H218.758C222.969 66.4233 226.947 66.4233 229.001 69.4691C230.226 71.2862 230.598 73.9859 230.13 77.7153Z" fill="#0F0F0F"/>
<path d="M297.185 77.3736H286.017C285.059 77.3736 284.243 78.2562 284.1 79.4546L283.605 83.4176L282.82 81.9812C280.401 77.5293 275.01 76.041 269.626 76.041C257.279 76.041 246.736 87.8998 244.682 104.535C243.617 112.833 245.129 120.768 248.841 126.301C252.253 131.389 257.118 133.509 262.915 133.509C272.864 133.509 278.381 125.397 278.381 125.397L277.883 129.334C277.696 130.84 278.61 132.19 279.808 132.19H289.869C291.463 132.19 292.821 130.719 293.07 128.716L299.112 80.2204C299.297 78.7277 298.382 77.3736 297.185 77.3736ZM281.609 104.95C280.538 113.045 275.464 118.479 269.002 118.479C265.764 118.479 263.164 117.16 261.499 114.659C259.848 112.176 259.227 108.641 259.745 104.704C260.759 96.6782 265.904 91.0668 272.267 91.0668C275.44 91.0668 278.02 92.4036 279.719 94.926C281.428 97.4742 282.104 101.031 281.609 104.95Z" fill="#0F0F0F"/>
<path d="M310.359 52.0853L300.781 129.347C300.594 130.844 301.508 132.194 302.699 132.194H312.327C313.928 132.194 315.286 130.723 315.531 128.72L324.975 52.8511C325.163 51.3542 324.249 50 323.058 50H312.276C311.324 50.0043 310.505 50.8869 310.359 52.0853Z" fill="#0F0F0F"/>
<path d="M60.9999 50.0044H37.6657C36.0689 50.0044 34.711 51.4754 34.4619 53.4742L25.0245 129.347C24.8368 130.844 25.7512 132.194 26.9488 132.194H38.0888C39.6856 132.194 41.0435 130.723 41.2926 128.72L43.8379 108.256C44.0836 106.253 45.4449 104.782 47.0383 104.782H54.4251C69.7959 104.782 78.6669 95.3499 80.9836 76.6596C82.0277 68.4827 81.028 62.0579 78.0084 57.5584C74.692 52.6176 68.8099 50.0044 60.9999 50.0044ZM63.692 77.7153C62.4159 88.3324 56.0185 88.3324 49.8327 88.3324H46.3116L48.7818 68.5043C48.9285 67.3059 49.7474 66.4233 50.7027 66.4233H52.3166C56.5303 66.4233 60.5052 66.4233 62.5592 69.4691C63.7841 71.2862 64.1594 73.9859 63.692 77.7153Z" fill="#0F0F0F"/>
<path d="M130.751 77.3736H119.577C118.625 77.3736 117.802 78.2562 117.656 79.4546L117.161 83.4176L116.38 81.9812C113.961 77.5293 108.566 76.041 103.182 76.041C90.8345 76.041 80.2882 87.8998 78.2342 104.535C77.1662 112.833 78.6845 120.768 82.3967 126.301C85.8018 131.389 90.6741 133.509 96.471 133.509C106.42 133.509 111.937 125.397 111.937 125.397L111.439 129.334C111.251 130.84 112.166 132.19 113.357 132.19H123.422C125.022 132.19 126.373 130.719 126.626 128.716L132.665 80.2204C132.856 78.7277 131.945 77.3736 130.751 77.3736ZM115.175 104.95C114.097 113.045 109.03 118.479 102.568 118.479C99.3233 118.479 96.7303 117.16 95.0652 114.659C93.4139 112.176 92.7861 108.641 93.3115 104.704C94.318 96.6782 99.4701 91.0668 105.833 91.0668C109.006 91.0668 111.586 92.4036 113.285 94.926C114.988 97.4742 115.663 101.031 115.175 104.95Z" fill="#0F0F0F"/>
<path d="M189.561 76.0049H178.333C177.261 76.0049 176.255 76.6798 175.648 77.809L160.161 106.736L153.596 78.9382C153.183 77.199 151.918 76.0049 150.485 76.0049H139.45C138.109 76.0049 137.178 77.6662 137.604 79.267L149.973 125.292L138.345 146.106C137.43 147.746 138.352 150 139.931 150H151.146C152.211 150 153.207 149.342 153.811 148.235L191.158 79.8771C192.052 78.2417 191.134 76.0049 189.561 76.0049Z" fill="#0F0F0F"/>
</svg>
