<svg width="350" height="200" viewBox="0 0 350 200" fill="none" xmlns="http://www.w3.org/2000/svg">
<path fill-rule="evenodd" clip-rule="evenodd" d="M230.054 71.0402H245.709V104.577L259.252 71.0402H273.619L244.652 138.842C244.652 138.842 241.964 144.529 238.628 147.537C235.889 150.011 232.519 149.899 231.489 150C225.768 149.933 218.866 149.912 218.866 149.912L222.195 133.75L227.583 133.737C227.583 133.737 230.048 133.398 231.001 131.759C231.908 130.196 232.372 128.634 232.372 126.342C232.372 122.907 230.054 71.0402 230.054 71.0402ZM67.3855 77.738C65.2067 84.5445 58.4508 83.7705 58.4508 83.7705L50.5848 83.7209L53.4563 69.3066C53.4563 69.3066 60.4933 69.3417 63.9447 69.3417C67.6393 69.3417 68.7922 73.3447 67.3855 77.738ZM85.2632 67.9152C86.6023 53.6128 77.2679 50.0016 67.1756 50.0016H40.655L25 126.935H41.8517L47.1132 100.814L56.5662 100.918C56.5662 100.918 60.4672 100.613 60.5442 105.553C60.6261 110.822 57.6479 120.498 57.84 126.935H75.1519L75.114 124.886C75.114 124.886 73.6753 124.371 73.8354 121.646C73.9018 120.512 74.8305 116.924 76.0462 112.084C76.7792 109.951 77.8846 104.889 77.7826 100.768C77.6557 95.6228 75.261 93.235 71.8084 91.5654C82.5708 88.1621 85.2632 67.9152 85.2632 67.9152ZM89.0871 71.0402H104.457L98.1274 103.878C98.1274 103.878 96.5487 111.201 101.629 111.766C105.642 112.214 108.629 105.756 109.607 101.382C110.893 95.6372 115.889 71.0386 115.889 71.0386H131.724L119.675 126.934H105.849L107.547 118.948C107.547 118.948 100.494 130.546 90.0134 129.155C80.698 127.922 79.895 118.811 81.5093 107.445C82.3016 101.865 89.0871 71.0402 89.0871 71.0402ZM168.029 77.9139C165.836 86.163 159.792 85.1906 159.792 85.1906L151.542 85.1938L154.799 68.8492C154.799 68.8492 160.021 68.8859 163.471 68.8859C167.693 68.8859 169.225 73.4103 168.029 77.9139ZM185.356 70.2757C186.696 55.9717 178.611 50 168.517 50H141.998L126.344 126.934H143.196L147.934 103.215L161.361 103.325C161.361 103.325 182.151 104.512 185.356 70.2757ZM199.524 115.547C196.891 116.447 193.698 116.936 193.064 113.711C191.325 104.871 206.673 102.284 206.673 102.284C206.778 110.338 201.545 114.853 199.524 115.547ZM222.741 99.3683C224.766 90.0701 227.325 81.266 225.265 76.3866C222.11 68.9179 216.407 68.2622 208.065 68.2622C198.848 68.2622 187.468 70.6228 183.759 87.1498H199.104C199.104 87.1498 200.502 80.9253 206.262 81.3172C211.359 81.6642 211.081 86.3933 209.202 89.0081C205.907 93.5901 196.807 91.0488 186.729 95.7635C177.924 99.8833 174.843 115.495 176.756 121.726C178.61 127.768 182.062 128.538 186.72 129.155C194.2 130.147 199.936 124.522 202.606 121.221C202.606 124.886 202.677 126.934 202.677 126.934H218.825L218.785 124.885C218.785 124.885 217.347 124.37 217.507 121.645C217.623 119.649 220.414 110.047 222.741 99.3683Z" fill="white"/>
<path fill-rule="evenodd" clip-rule="evenodd" d="M304.929 64L281.906 137L325 100.499L304.929 64Z" fill="white"/>
<path fill-rule="evenodd" clip-rule="evenodd" d="M289.182 64L266.16 137L309.254 100.499L289.182 64Z" fill="white"/>
</svg>
