<svg width="350" height="200" viewBox="0 0 350 200" fill="none" xmlns="http://www.w3.org/2000/svg">
<path fill-rule="evenodd" clip-rule="evenodd" d="M198.404 105.938H192.524C191.944 105.896 191.487 105.234 191.48 104.426V62.2678C191.542 61.4674 192.035 60.867 192.613 60.8868H198.085C198.584 60.909 199.01 61.3903 199.13 62.0643V68.5116H199.244C200.895 62.7476 203.208 60 207.281 60C209.923 60 212.503 61.3302 214.168 64.9645C215.709 68.3372 215.709 74.014 215.709 78.0917V104.615C215.622 105.389 215.138 105.955 214.576 105.938H208.644C208.112 105.906 207.672 105.349 207.599 104.615V81.7261C207.599 81.3676 207.602 80.9963 207.604 80.6162C207.632 76.1092 207.669 70.3724 203.908 70.3724C202.393 70.4699 201.059 71.7877 200.492 73.7451C199.667 76.3182 199.558 78.8913 199.558 81.7406V104.426C199.535 105.282 199.024 105.954 198.409 105.938H198.404ZM173.496 60.0586C182.253 60.0586 186.989 70.5255 186.989 83.8271C186.989 96.6854 181.767 106.883 173.496 106.883C164.906 106.883 160.228 96.4165 160.228 83.3838C160.228 70.351 164.964 60.0586 173.496 60.0586ZM173.553 68.665C169.204 68.665 168.927 76.9077 168.927 82.0539L168.927 82.2245C168.926 87.4387 168.925 98.1904 173.496 98.1904C178.117 98.1904 178.29 89.3226 178.29 83.9147C178.29 80.3676 178.18 76.1082 177.407 72.7428C176.744 69.8353 175.423 68.665 173.553 68.665ZM64.4869 106.025H58.5915C58.0446 105.985 57.6007 105.395 57.5472 104.637V62.4783C57.567 61.6334 58.0679 60.9653 58.6751 60.9736H64.1736C64.737 61.0169 65.1869 61.6431 65.2179 62.4274V67.9298H65.3276C66.7584 62.6018 69.458 60.1232 73.0923 60.1232C76.7267 60.1232 79.0921 62.6018 80.7474 67.9298C81.8525 63.8295 84.4602 60.8775 87.5691 60.2072C90.6781 59.5369 93.8051 61.2525 95.7495 64.6952C97.3535 67.7303 97.3022 71.9574 97.2539 75.9286C97.2458 76.5985 97.2377 77.2612 97.2377 77.9097V104.506C97.2323 104.918 97.1091 105.31 96.8954 105.595C96.6817 105.88 96.3953 106.035 96.0994 106.025H90.204C89.6241 105.983 89.1671 105.321 89.1597 104.513V82.1691C89.1597 81.8323 89.1637 81.3995 89.1682 80.9079V80.9068V80.9057V80.9046V80.9034V80.9023V80.9011V80.8999C89.1875 78.8025 89.2165 75.6397 88.9926 74.2753C88.5539 71.4405 87.2328 70.641 85.5253 70.641C83.9602 70.7075 82.5741 72.0654 82.0006 74.0936C81.4382 76.0778 81.443 79.2714 81.4466 81.6381C81.4469 81.8203 81.4471 81.9976 81.4471 82.1691V104.506C81.4417 104.916 81.3192 105.307 81.1067 105.592C80.8941 105.877 80.609 106.033 80.314 106.025H74.403C73.8242 105.979 73.3687 105.32 73.3587 104.513V82.1691C73.3587 81.7118 73.3636 81.2334 73.3687 80.7425V80.7422V80.742V80.7417V80.7415V80.7412V80.741V80.7407V80.7406C73.4158 76.1831 73.4741 70.5392 69.7034 70.5392C65.6247 70.5392 65.6279 76.9627 65.6303 81.8195L65.6305 82.1691V104.506C65.625 104.918 65.5018 105.31 65.2881 105.595C65.0745 105.88 64.788 106.035 64.4921 106.025H64.4869ZM46.9366 106.541C47.3845 106.892 47.9425 106.814 48.3308 106.345L48.3778 106.36C49.5527 104.899 51.6936 102.311 52.8998 100.908C53.3593 100.363 53.2758 99.4543 52.8998 98.7275C52.7851 98.5075 52.6696 98.2919 52.5547 98.0776C51.588 96.2734 50.6701 94.5606 50.6701 91.1171V78.3316C50.6701 77.9186 50.6716 77.5081 50.6731 77.1005C50.691 72.1631 50.7074 67.6452 48.0593 64.194C45.8035 61.1702 42.0542 60.109 39.1823 60.109C33.5689 60.109 27.3028 63.0237 25.9921 72.6765C25.9378 73.0672 26.0009 73.4718 26.1666 73.7959C26.3324 74.1201 26.5864 74.3355 26.8694 74.3919L32.5402 75.2569C33.094 75.14 33.5224 74.5199 33.5846 73.745C34.0754 70.4232 36.0806 68.8169 38.3311 68.8169C39.553 68.8169 40.9211 69.4347 41.6417 70.9466C42.3813 72.4647 42.3698 74.4793 42.3595 76.2888V76.289V76.2892V76.2894V76.2896V76.2897V76.2899V76.2901V76.2903C42.3583 76.4989 42.3571 76.7048 42.3571 76.9069V77.9681C41.8213 78.0524 41.2596 78.1322 40.6812 78.2144L40.6811 78.2144L40.6807 78.2145L40.6804 78.2145L40.6801 78.2145L40.6799 78.2146C37.5665 78.657 33.9652 79.1687 31.2661 80.8174C27.6109 83.0417 25 87.57 25 94.2354C25 102.769 28.8641 107.036 33.83 107.036C38.0231 107.036 40.3154 105.662 43.5581 101.068C43.7145 101.385 43.8555 101.678 43.9886 101.954C44.7621 103.56 45.2658 104.606 46.9366 106.541ZM42.3832 86.7244L42.383 86.3263V84.5601C38.1168 84.5601 33.6105 85.8321 33.6105 92.8245C33.6105 96.3862 34.9316 98.7849 37.1926 98.7849C38.8531 98.7849 40.3413 97.3602 41.2812 95.0488C42.387 92.3115 42.3853 89.7477 42.3832 86.7244V86.7244ZM129.868 98.0486L129.868 98.0472C128.901 96.2434 127.984 94.5312 127.984 91.0949V78.3021C127.984 77.8643 127.985 77.4295 127.987 76.9979V76.9969V76.9959V76.9949V76.9939V76.9929C128.008 72.0808 128.026 67.5978 125.373 64.1645C123.112 61.1407 119.362 60.0795 116.496 60.0795C110.882 60.0795 104.616 62.987 103.3 72.647C103.244 73.0399 103.307 73.4474 103.475 73.7735C103.642 74.0996 103.898 74.3153 104.183 74.3697L109.901 75.2274C110.454 75.1082 110.881 74.4893 110.945 73.7155C111.441 70.3937 113.436 68.7874 115.686 68.7874C116.903 68.7874 118.297 69.4125 118.997 70.9244C119.742 72.4368 119.73 74.4522 119.72 76.2624C119.719 76.4704 119.718 76.6758 119.718 76.8774V77.9168C119.192 77.9983 118.642 78.0757 118.076 78.1554C114.953 78.5945 111.331 79.1039 108.627 80.7589C104.93 82.9831 102.334 87.5115 102.334 94.1841C102.334 102.71 106.198 106.977 111.164 106.977C115.342 106.977 117.65 105.603 120.887 101.009C121.041 101.321 121.18 101.61 121.311 101.882C122.096 103.509 122.593 104.539 124.271 106.483C124.718 106.831 125.274 106.756 125.665 106.294C126.84 104.84 128.981 102.245 130.187 100.842C130.694 100.341 130.61 99.4539 130.213 98.6979C130.099 98.4783 129.983 98.2629 129.869 98.0489L129.868 98.0486ZM118.621 95.0124C117.686 97.3166 116.193 98.7412 114.538 98.7412C112.277 98.7412 110.956 96.3426 110.956 92.7882C110.956 85.7885 115.462 84.5237 119.728 84.5237V86.2973L119.728 86.6232C119.73 89.6844 119.731 92.2602 118.621 95.0124ZM135.205 68.3365V62.3326C135.191 61.9215 135.303 61.5216 135.513 61.232C135.723 60.9425 136.012 60.7903 136.307 60.8134H155.695C155.99 60.7995 156.276 60.9539 156.487 61.2408C156.698 61.5276 156.816 61.922 156.813 62.3326V67.5006C156.813 68.3656 156.291 69.4995 155.356 71.2876L145.309 91.2474C149.037 91.1238 152.98 91.9015 156.369 94.5546C156.995 95.0192 157.393 95.9154 157.413 96.9024V103.357C157.413 104.244 156.719 105.269 155.982 104.738C149.551 100.137 141.917 100.156 135.497 104.789C134.824 105.29 134.119 104.28 134.119 103.393V97.2513C134.057 95.8035 134.308 94.3631 134.84 93.1154L146.479 69.8557H136.328C136.032 69.8716 135.745 69.7181 135.532 69.431C135.32 69.1439 135.202 68.7483 135.205 68.3365ZM237.682 66.1716C239.164 64.3525 240.857 62.8974 242.69 61.8685C244.421 60.9081 246.267 60.4147 248.131 60.4148C249.983 60.3668 251.821 60.8828 253.515 61.9267C255.111 62.9454 256.509 64.4806 257.593 66.4042C258.773 68.5352 259.645 70.964 260.162 73.5565C260.788 76.6292 261.091 79.8122 261.06 83.0058C261.088 86.2674 260.765 89.5165 260.099 92.6441C259.542 95.298 258.63 97.7815 257.41 99.9636C256.277 101.948 254.839 103.552 253.201 104.659C251.48 105.771 249.6 106.321 247.703 106.266C244.158 106.347 240.726 104.525 238.121 101.177V121.355C238.171 121.83 238.056 122.31 237.813 122.649C237.569 122.988 237.224 123.147 236.883 123.078H233.228C232.887 123.147 232.542 122.988 232.299 122.649C232.055 122.31 231.941 121.83 231.99 121.355V63.4167C231.943 62.9427 232.058 62.465 232.301 62.1265C232.544 61.788 232.887 61.6279 233.228 61.6941H235.949C236.304 61.6478 236.657 61.8058 236.926 62.1311C237.195 62.4565 237.357 62.921 237.374 63.4167L237.682 66.1716ZM246.403 67.2915C243.405 67.3245 240.496 68.715 238.116 71.253V95.2396C240.754 98.0017 243.475 99.3803 246.277 99.3755C251.965 99.3755 254.81 94.0451 254.81 83.3844C254.81 72.7237 252.007 67.357 246.403 67.2843V67.2915ZM268.783 69.4121L269.248 69.1941C272.189 67.9331 275.246 67.272 278.323 67.2315C280.798 67.2364 282.53 67.8688 283.519 69.1287C284.507 70.3886 285.002 72.5692 285.002 75.6705V81.3255C282.455 80.416 279.84 79.928 277.211 79.8718C273.583 79.8669 270.697 81.1147 268.553 83.6151C266.409 86.1155 265.336 89.4591 265.336 93.6459C265.343 97.5467 266.214 100.66 267.947 102.986C269.681 105.312 272.031 106.475 274.997 106.475C276.831 106.464 278.647 105.971 280.349 105.021C282.144 104.046 283.806 102.649 285.263 100.893L285.576 103.735C285.592 104.207 285.746 104.649 286.002 104.959C286.259 105.268 286.596 105.417 286.934 105.37H289.597C289.937 105.436 290.28 105.276 290.524 104.938C290.767 104.599 290.882 104.122 290.834 103.648V74.2385C290.831 69.5284 289.901 66.0564 288.046 63.8225C286.19 61.5886 283.305 60.4717 279.388 60.4717C277.439 60.4717 275.494 60.7152 273.576 61.1985C271.902 61.5708 270.264 62.2073 268.694 63.0957C268.314 63.2746 267.974 63.5877 267.707 64.0043C267.504 64.5161 267.417 65.1013 267.457 65.6833V67.9875C267.457 69.0269 267.738 69.543 268.261 69.543C268.439 69.5392 268.615 69.4951 268.783 69.4121ZM280.751 98.9154C279.386 99.6255 277.943 100.002 276.485 100.028C274.877 100.032 273.639 99.446 272.772 98.2685C271.906 97.091 271.472 95.4119 271.472 93.2313C271.469 88.2353 273.799 85.7373 278.464 85.7373C279.569 85.7405 280.673 85.8425 281.769 86.0426C282.862 86.2342 283.946 86.5059 285.017 86.8567V95.6445C283.722 97.0281 282.284 98.1308 280.751 98.9154ZM307.089 121.523C308.551 119.798 309.841 116.956 310.959 112.997L324.567 64.7908C324.791 64.1378 324.938 63.4381 325 62.7192C325 62.036 324.713 61.6871 324.133 61.6871H320.671C320.196 61.6236 319.718 61.7739 319.308 62.1159C318.959 62.6588 318.707 63.3088 318.572 64.013L310.217 97.4126L301.554 64.013C301.42 63.3088 301.167 62.6588 300.818 62.1159C300.408 61.7739 299.931 61.6236 299.455 61.6871H295.742C295.168 61.6871 294.881 62.036 294.881 62.7192C294.94 63.4379 295.085 64.138 295.309 64.7908L307.225 105.793L306.05 110.155C305.35 112.912 304.567 114.807 303.7 115.839C302.656 116.952 301.358 117.502 300.045 117.387C299.487 117.403 298.929 117.345 298.379 117.212C298.073 117.121 297.763 117.065 297.45 117.045C296.829 117.045 296.52 117.59 296.52 118.681V120.919C296.486 121.537 296.594 122.153 296.829 122.679C297.086 123.096 297.434 123.385 297.821 123.5C298.971 123.922 300.156 124.125 301.345 124.103C303.713 124.108 305.627 123.248 307.089 121.523Z" fill="white"/>
<path fill-rule="evenodd" clip-rule="evenodd" d="M144.902 132.832C146.244 128.187 149.231 117.779 147.811 115.256H147.821C146.407 112.729 138.47 114.055 134.9 114.652L134.892 114.653C133.806 114.835 133.639 113.519 134.616 112.567C140.955 106.367 151.341 108.14 152.547 110.234C153.753 112.327 152.218 126.821 146.281 133.741C145.367 134.802 144.495 134.235 144.902 132.832ZM102.245 139.998C116.052 139.998 132.13 133.929 143.205 122.554V122.575C145.038 120.656 143.466 117.836 141.597 118.941C129.507 126.039 116.53 129.744 103.41 129.844C85.2069 129.844 67.5991 122.895 53.3542 111.36C52.1062 110.349 51.1767 112.13 52.2211 113.431C65.935 130.655 83.775 140.129 102.245 139.998Z" fill="white"/>
</svg>
