<svg width="350" height="200" viewBox="0 0 350 200" fill="none" xmlns="http://www.w3.org/2000/svg">
<path fill-rule="evenodd" clip-rule="evenodd" d="M56.3102 134.893C73.6024 134.893 87.6204 119.472 87.6204 100.449C87.6204 81.4257 73.6024 66.0044 56.3102 66.0044C39.0181 66.0044 25 81.4257 25 100.449C25 119.472 39.0181 134.893 56.3102 134.893ZM70.1153 95.5386C70.7378 90.9536 67.5645 88.4899 63.2264 86.8445L64.6339 80.6314L61.1983 79.6882L59.828 85.7376C58.9255 85.4899 57.9976 85.2552 57.0736 85.0248L58.4537 78.9366L55.0201 77.9933L53.6106 84.2042C52.8628 84.0169 52.1287 83.8317 51.4161 83.6357L51.42 83.6163L46.6806 82.3156L45.7664 86.3535C45.7664 86.3535 48.3152 86.9953 48.2624 87.0362C49.6542 87.4195 49.9068 88.4317 49.8637 89.235L48.2604 96.3095C48.3563 96.3354 48.4797 96.372 48.6186 96.4366C48.5031 96.4022 48.3818 96.3698 48.2545 96.3354L46.0072 106.25C45.8369 106.714 45.4042 107.411 44.4313 107.146C44.4665 107.2 41.9334 106.462 41.9334 106.462L40.2263 110.79L44.6975 112.016C45.5295 112.244 46.3458 112.485 47.1465 112.711L45.7253 118.993L49.157 119.937L50.5665 113.721C51.5042 113.999 52.4145 114.26 53.3052 114.503L51.9016 120.688L55.3372 121.631L56.7604 115.362C62.6215 116.581 67.0281 116.09 68.882 110.258C70.3776 105.561 68.8076 102.854 65.7243 101.088C67.9717 100.52 69.6631 98.896 70.1153 95.5386ZM62.2636 107.652C61.2006 112.347 54.0161 109.808 51.6865 109.17L53.5737 100.849C55.9032 101.488 63.3735 102.755 62.2636 107.652ZM63.3262 95.472C62.3572 99.7404 56.3766 97.5717 54.4366 97.0419L56.1476 89.4915C58.0876 90.0256 64.3344 91.0184 63.3262 95.472Z" fill="white"/>
<path fill-rule="evenodd" clip-rule="evenodd" d="M116.776 86.8402C119.317 86.8402 121.509 87.3399 123.353 88.3241C125.205 89.3169 126.736 90.6542 127.961 92.3362C129.171 94.0268 130.072 96.0037 130.653 98.2672C131.231 100.539 131.52 102.979 131.52 105.594C131.52 109.606 130.853 113.4 129.502 116.975C128.153 120.555 126.321 123.66 123.991 126.309C121.664 128.956 118.915 131.04 115.746 132.58C112.58 134.124 109.141 134.893 105.447 134.893C104.969 134.893 104.129 134.88 102.943 134.85C101.757 134.824 100.392 134.691 98.8653 134.462C97.3285 134.228 95.7037 133.879 93.9869 133.412C92.272 132.953 90.6432 132.309 89.1085 131.493L102.824 68.0954L115.108 66L110.198 88.4964C111.249 87.9752 112.308 87.5703 113.365 87.2774C114.428 86.9931 115.562 86.8402 116.776 86.8402ZM106.473 124.175C108.322 124.175 110.065 123.676 111.703 122.691C113.346 121.709 114.763 120.381 115.949 118.724C117.136 117.064 118.077 115.19 118.762 113.097C119.448 111.006 119.794 108.824 119.794 106.552C119.794 103.763 119.371 101.586 118.526 100.014C117.68 98.4463 116.118 97.6602 113.847 97.6602C113.103 97.6602 112.144 97.8153 110.955 98.0931C109.763 98.3924 108.696 99.0062 107.739 99.9301L102.51 123.824C102.825 123.882 103.105 123.943 103.342 123.996C103.575 124.055 103.832 124.098 104.088 124.128C104.36 124.162 104.67 124.177 105.043 124.177C105.417 124.177 105.891 124.175 106.473 124.175Z" fill="white"/>
<path fill-rule="evenodd" clip-rule="evenodd" d="M144.264 133.676H132.53L142.44 87.8072H154.254L144.264 133.676ZM149.973 82.2229C148.334 82.2229 146.85 81.6845 145.533 80.612C144.204 79.5439 143.546 77.8985 143.546 75.6825C143.546 74.4635 143.771 73.3178 144.217 72.241C144.67 71.1643 145.263 70.2339 146.005 69.4478C146.747 68.6661 147.604 68.0416 148.579 67.5699C149.56 67.1069 150.603 66.8765 151.715 66.8765C153.352 66.8765 154.83 67.4127 156.151 68.4873C157.468 69.5663 158.132 71.2116 158.132 73.4147C158.132 74.638 157.909 75.788 157.457 76.8648C157.008 77.9416 156.417 78.8676 155.675 79.658C154.941 80.4397 154.074 81.0621 153.101 81.5295C152.12 81.9989 151.083 82.2229 149.973 82.2229Z" fill="white"/>
<path fill-rule="evenodd" clip-rule="evenodd" d="M164.534 76.385L176.824 74.2896L173.805 87.8076H186.966L184.59 98.4442H171.507L168.022 114.491C167.701 115.828 167.519 117.077 167.468 118.236C167.412 119.403 167.545 120.404 167.862 121.246C168.177 122.091 168.745 122.741 169.567 123.204C170.385 123.671 171.558 123.906 173.093 123.906C174.357 123.906 175.591 123.775 176.783 123.51C177.967 123.253 179.169 122.892 180.385 122.42L181.26 132.367C179.674 133.007 177.957 133.558 176.107 134.021C174.255 134.489 172.061 134.715 169.526 134.715C165.881 134.715 163.054 134.123 161.042 132.936C159.031 131.741 157.61 130.11 156.758 128.045C155.918 125.988 155.545 123.615 155.65 120.943C155.76 118.264 156.126 115.447 156.758 112.481L164.534 76.385V76.385Z" fill="white"/>
<path fill-rule="evenodd" clip-rule="evenodd" d="M186.449 115.367C186.449 111.415 187.031 107.692 188.194 104.201C189.352 100.71 191.024 97.6581 193.193 95.0372C195.355 92.4292 197.986 90.3639 201.083 88.85C204.166 87.3403 207.617 86.5801 211.423 86.5801C213.803 86.5801 215.931 86.8256 217.803 87.3231C219.682 87.8227 221.383 88.4709 222.92 89.2828L218.873 99.4068C217.816 98.9352 216.718 98.5196 215.585 98.1405C214.449 97.7572 213.063 97.572 211.425 97.572C207.509 97.572 204.412 99.0558 202.108 102.015C199.814 104.978 198.657 108.964 198.657 113.967C198.657 116.933 199.238 119.327 200.405 121.162C201.566 122.995 203.71 123.906 206.824 123.906C208.361 123.906 209.843 123.729 211.264 123.385C212.695 123.036 213.958 122.599 215.072 122.078L215.947 132.454C214.463 133.089 212.826 133.662 211.031 134.161C209.232 134.646 207.09 134.894 204.606 134.894C201.329 134.894 198.553 134.368 196.284 133.328C194.014 132.273 192.136 130.871 190.658 129.096C189.172 127.317 188.105 125.239 187.446 122.855C186.784 120.48 186.449 117.977 186.449 115.367H186.449Z" fill="white"/>
<path fill-rule="evenodd" clip-rule="evenodd" d="M238.569 134.897C235.768 134.897 233.336 134.43 231.273 133.502C229.216 132.571 227.512 131.269 226.164 129.578C224.815 127.896 223.803 125.902 223.112 123.606C222.419 121.312 222.088 118.769 222.088 115.985C222.088 112.489 222.599 108.996 223.628 105.512C224.654 102.023 226.175 98.8872 228.192 96.0983C230.19 93.3051 232.655 91.0223 235.56 89.2413C238.459 87.4754 241.797 86.5859 245.544 86.5859C248.293 86.5859 250.714 87.0554 252.805 87.9836C254.886 88.914 256.601 90.2255 257.957 91.9074C259.298 93.598 260.318 95.5836 261.003 97.8836C261.694 100.173 262.033 102.723 262.033 105.509C262.033 108.994 261.53 112.487 260.532 115.982C259.531 119.458 258.049 122.602 256.092 125.396C254.138 128.185 251.695 130.465 248.76 132.24C245.826 134.01 242.426 134.897 238.569 134.897ZM244.432 97.5765C242.692 97.5765 241.155 98.1321 239.838 99.2304C238.516 100.34 237.406 101.735 236.512 103.417C235.607 105.105 234.936 106.953 234.483 108.954C234.035 110.963 233.814 112.86 233.814 114.665C233.814 117.575 234.241 119.84 235.079 121.473C235.93 123.094 237.457 123.911 239.679 123.911C241.425 123.911 242.954 123.359 244.279 122.25C245.593 121.15 246.703 119.754 247.605 118.068C248.504 116.388 249.181 114.536 249.634 112.531C250.078 110.528 250.303 108.62 250.303 106.82C250.303 103.917 249.878 101.647 249.033 100.016C248.187 98.3905 246.652 97.5765 244.432 97.5765Z" fill="white"/>
<path fill-rule="evenodd" clip-rule="evenodd" d="M274.816 133.676H263.074L272.984 87.8072H284.804L274.816 133.676ZM280.517 82.2229C278.88 82.2229 277.396 81.6845 276.081 80.612C274.757 79.5439 274.094 77.8985 274.094 75.6825C274.094 74.4635 274.321 73.3178 274.769 72.241C275.217 71.1643 275.812 70.2339 276.554 69.4478C277.292 68.6661 278.158 68.0416 279.131 67.5699C280.105 67.1069 281.149 66.8765 282.259 66.8765C283.899 66.8765 285.381 67.4127 286.701 68.4873C288.022 69.5663 288.688 71.2116 288.688 73.4147C288.688 74.638 288.451 75.788 288.006 76.8648C287.562 77.9416 286.969 78.8676 286.229 79.658C285.485 80.4397 284.631 81.0621 283.657 81.5295C282.674 81.9989 281.632 82.2229 280.517 82.2229Z" fill="white"/>
<path fill-rule="evenodd" clip-rule="evenodd" d="M293.253 89.8984C294.144 89.612 295.139 89.2674 296.221 88.8927C297.308 88.518 298.519 88.1691 299.874 87.8547C301.215 87.5316 302.726 87.2711 304.39 87.0643C306.054 86.8576 307.947 86.7563 310.056 86.7563C316.242 86.7563 320.509 88.7376 322.864 92.6916C325.216 96.6456 325.625 102.055 324.096 108.91L318.701 133.676H306.89L312.121 109.431C312.438 107.917 312.691 106.453 312.875 105.023C313.063 103.608 313.051 102.359 312.834 101.278C312.628 100.21 312.135 99.3376 311.373 98.6592C310.598 97.9894 309.427 97.6578 307.84 97.6578C306.311 97.6578 304.755 97.8387 303.165 98.1876L295.473 133.676H283.659L293.253 89.8984V89.8984Z" fill="white"/>
</svg>
