<svg width="350" height="200" viewBox="0 0 350 200" fill="none" xmlns="http://www.w3.org/2000/svg">
<path d="M323.987 79.4934C322.617 75.3324 320.064 71.7275 316.683 69.178C313.301 66.6285 309.258 65.2606 305.113 65.2637H304.933C302.24 65.2606 299.574 65.8382 297.097 66.9618C294.619 68.0854 292.382 69.7315 290.519 71.8008C288.658 69.7319 286.421 68.0859 283.944 66.9624C281.468 65.8388 278.803 65.2609 276.11 65.2637H275.931C271.146 65.2583 266.52 67.0852 262.898 70.4101V68.7844C262.847 67.995 262.516 67.2555 261.973 66.7149C261.43 66.1743 260.714 65.8727 259.97 65.8709H246.62C246.231 65.8709 245.846 65.9523 245.487 66.1106C245.129 66.2689 244.803 66.5009 244.528 66.7934C244.254 67.0858 244.036 67.4329 243.888 67.8149C243.74 68.1969 243.664 68.6062 243.664 69.0194V146.26C243.664 147.093 243.976 147.893 244.53 148.482C245.084 149.072 245.836 149.403 246.62 149.403H259.97C260.683 149.402 261.372 149.126 261.908 148.626C262.445 148.127 262.793 147.437 262.889 146.686V91.2505C262.889 91.0641 262.889 90.8781 262.889 90.6921C262.984 89.4405 263.503 88.2678 264.35 87.3925C265.196 86.5171 266.313 85.9985 267.492 85.9325H269.964C270.992 86.0095 271.974 86.4138 272.782 87.0931C273.362 87.5945 273.826 88.2301 274.141 88.9515C274.455 89.6725 274.611 90.4605 274.595 91.2551L274.646 146.421C274.646 147.255 274.957 148.055 275.512 148.646C276.066 149.236 276.817 149.568 277.602 149.57H290.952C291.714 149.574 292.449 149.266 293.002 148.708C293.555 148.151 293.885 147.388 293.921 146.578V91.1915C293.904 90.3161 294.094 89.4505 294.475 88.6741C294.855 87.8978 295.414 87.2361 296.099 86.7505C296.837 86.2435 297.682 85.9405 298.557 85.8688H301.025C302.296 85.9398 303.492 86.5358 304.356 87.5298C305.221 88.5238 305.688 89.8375 305.656 91.1915L305.711 146.284C305.711 147.118 306.023 147.917 306.577 148.507C307.131 149.096 307.883 149.428 308.667 149.428H322.017C322.406 149.428 322.79 149.348 323.149 149.19C323.509 149.032 323.835 148.801 324.11 148.509C324.385 148.217 324.603 147.87 324.752 147.488C324.901 147.106 324.977 146.697 324.977 146.284V87.0345C325.095 84.4798 324.752 81.9248 323.964 79.5081" fill="#0F0F0F"/>
<path d="M233.466 66.0758H225.819V52.889C225.821 52.5108 225.753 52.1358 225.618 51.7857C225.483 51.4356 225.285 51.1172 225.034 50.8488C224.783 50.5804 224.486 50.3672 224.157 50.2216C223.829 50.0759 223.477 50.0006 223.121 50C222.951 50.0021 222.781 50.0235 222.615 50.0637C214.131 52.512 215.838 65.0279 200.357 66.0954H198.851C198.634 66.0958 198.418 66.1221 198.207 66.1737C197.554 66.3312 196.971 66.7197 196.553 67.2757C196.135 67.8317 195.906 68.5222 195.905 69.2342V83.4347C195.905 84.2687 196.216 85.069 196.77 85.6593C197.325 86.2497 198.076 86.5817 198.86 86.583H206.931V146.886C206.93 147.294 207.005 147.699 207.151 148.076C207.298 148.454 207.513 148.797 207.784 149.086C208.054 149.375 208.376 149.605 208.731 149.761C209.085 149.918 209.465 149.999 209.849 150H223.071C223.847 149.999 224.59 149.67 225.138 149.086C225.686 148.502 225.994 147.711 225.994 146.886V86.588H233.484C233.872 86.5873 234.257 86.5053 234.615 86.3467C234.973 86.1883 235.299 85.956 235.573 85.6637C235.847 85.3713 236.064 85.0243 236.212 84.6427C236.36 84.2613 236.435 83.8523 236.435 83.4393V69.2391C236.435 68.4066 236.124 67.6082 235.571 67.0196C235.017 66.431 234.267 66.1003 233.484 66.1003" fill="#0F0F0F"/>
<path d="M185.365 66.0772H172.014C171.231 66.0772 170.48 66.4077 169.926 66.9962C169.372 67.5847 169.06 68.3831 169.058 69.216V98.6302C169.046 99.5042 168.712 100.338 168.127 100.952C167.542 101.565 166.754 101.91 165.933 101.911H160.326C159.914 101.911 159.507 101.825 159.127 101.657C158.746 101.49 158.401 101.244 158.11 100.934C157.82 100.625 157.589 100.257 157.432 99.8522C157.275 99.4475 157.195 99.0142 157.195 98.5765L157.135 69.1964C157.134 68.3635 156.822 67.5652 156.268 66.9767C155.714 66.3882 154.963 66.0576 154.18 66.0576H140.829C140.441 66.057 140.057 66.1377 139.698 66.2951C139.339 66.4524 139.013 66.6835 138.738 66.9749C138.463 67.2664 138.245 67.6126 138.096 67.9938C137.947 68.3749 137.87 68.7836 137.869 69.1964V101.426C137.762 104.21 138.197 106.987 139.148 109.583C140.1 112.178 141.546 114.536 143.396 116.508C145.246 118.48 147.46 120.024 149.898 121.041C152.336 122.058 154.946 122.527 157.563 122.419C157.563 122.419 166.204 122.419 166.471 122.477C167.234 122.561 167.941 122.941 168.457 123.545C168.972 124.149 169.26 124.935 169.264 125.75C169.269 126.566 168.99 127.355 168.481 127.965C167.973 128.576 167.27 128.965 166.508 129.058L166.287 129.098L146.731 129.176C145.947 129.176 145.196 129.507 144.641 130.097C144.087 130.686 143.776 131.486 143.776 132.32V146.52C143.776 147.354 144.087 148.153 144.641 148.743C145.196 149.332 145.947 149.664 146.731 149.664H168.612C171.23 149.776 173.841 149.311 176.281 148.297C178.722 147.282 180.938 145.742 182.791 143.771C184.644 141.801 186.093 139.444 187.047 136.849C188.001 134.253 188.439 131.476 188.334 128.691V69.216C188.334 68.8034 188.257 68.3948 188.109 68.0137C187.96 67.6326 187.742 67.2863 187.468 66.9948C187.193 66.7033 186.867 66.4722 186.509 66.3147C186.15 66.1573 185.766 66.0766 185.378 66.0772" fill="#0F0F0F"/>
<path d="M57.1258 66.0721H27.9021C27.1329 66.0721 26.3952 66.3971 25.8513 66.9756C25.3074 67.5542 25.0018 68.3388 25.0018 69.157V83.0831C24.9994 83.101 24.9994 83.1192 25.0018 83.137C25.0018 83.2349 25.0018 83.2986 25.0018 83.3722V146.417C24.9789 147.213 25.2481 147.987 25.7525 148.576C26.2569 149.164 26.9568 149.521 27.7041 149.57H41.3262C42.11 149.57 42.8617 149.239 43.416 148.65C43.9703 148.06 44.2817 147.26 44.2817 146.427L44.3323 124.808H57.1258C59.5428 124.932 61.9576 124.517 64.215 123.589C66.4725 122.661 68.5224 121.241 70.233 119.42C71.9439 117.6 73.2775 115.419 74.1488 113.017C75.02 110.616 75.4091 108.047 75.2913 105.476V85.3992C75.4094 82.8268 75.021 80.2564 74.1503 77.8531C73.2797 75.4498 71.9464 73.2666 70.2358 71.4435C68.5255 69.6205 66.4756 68.1979 64.2178 67.2669C61.9601 66.336 59.5443 65.9174 57.1258 66.0378V66.0721ZM55.9517 92.0979V100.873C55.9517 101.756 55.6221 102.604 55.0351 103.229C54.4482 103.854 53.652 104.206 52.8213 104.208H44.3323V86.6772H52.8213C53.652 86.6785 54.4482 87.0305 55.0351 87.6559C55.6221 88.2809 55.9517 89.1285 55.9517 90.0119V92.0979Z" fill="#0F0F0F"/>
<path d="M109.292 66.1543H90.7447C89.9851 66.1291 89.2469 66.4234 88.6902 66.9734C88.1335 67.5235 87.8031 68.2848 87.7707 69.0923V74.6207V74.7333C87.7707 74.7676 87.7707 74.8067 87.7707 74.8067V82.4309C87.8007 83.2895 88.1495 84.1003 88.7406 84.686C89.3316 85.2717 90.1169 85.584 90.9241 85.555H108.588C109.289 85.6527 109.937 86.0057 110.421 86.5537C110.905 87.1017 111.196 87.8113 111.244 88.5617V90.393C111.204 91.126 110.923 91.821 110.452 92.3577C109.98 92.8943 109.347 93.2383 108.662 93.331H99.9148C97.3633 93.1297 94.8 93.492 92.386 94.395C89.9721 95.298 87.7602 96.722 85.8884 98.578C84.017 100.434 82.5265 102.682 81.5109 105.18C80.4949 107.678 79.9759 110.372 79.9861 113.094V129.654C79.8457 132.292 80.2348 134.931 81.1264 137.397C82.0184 139.863 83.3931 142.098 85.1594 143.956C86.9257 145.813 89.043 147.25 91.3713 148.17C93.6992 149.091 96.1846 149.474 98.6629 149.295H122.914C124.936 149.366 126.901 148.581 128.377 147.112C129.855 145.643 130.723 143.61 130.791 141.46V87.5037C130.791 74.4199 124.447 66.1543 109.292 66.1543ZM111.424 125.522V127.74C111.422 127.916 111.403 128.091 111.369 128.264C111.341 128.421 111.3 128.575 111.244 128.724C111.016 129.363 110.608 129.911 110.076 130.294C109.543 130.677 108.913 130.876 108.271 130.864H102.705C101.897 130.893 101.112 130.58 100.521 129.993C99.9306 129.406 99.5836 128.594 99.5558 127.735V125.052V124.954V117.814V115.567C99.5895 114.711 99.9389 113.904 100.528 113.321C101.118 112.738 101.9 112.426 102.705 112.452H108.275C109.084 112.425 109.87 112.739 110.461 113.326C111.052 113.914 111.4 114.726 111.429 115.586L111.424 125.522Z" fill="#0F0F0F"/>
</svg>
