<svg width="350" height="200" viewBox="0 0 350 200" fill="none" xmlns="http://www.w3.org/2000/svg">
<path d="M123.598 91.1042C123.602 87.916 123.33 84.7334 122.786 81.5913H78.3586V99.6098H103.805C103.284 102.488 102.182 105.231 100.565 107.674C98.9479 110.118 96.8493 112.211 94.3958 113.827V125.523H109.582C118.474 117.381 123.598 105.341 123.598 91.1042Z" fill="#0F0F0F"/>
<path d="M78.3588 136.824C91.0721 136.824 101.777 132.678 109.583 125.53L94.396 113.834C90.1691 116.68 84.7252 118.305 78.3588 118.305C66.0708 118.305 55.641 110.078 51.9114 98.9932H36.2668V111.047C40.1879 118.795 46.2004 125.309 53.6332 129.861C61.0659 134.413 69.6264 136.823 78.3588 136.824Z" fill="#0F0F0F"/>
<path d="M51.9111 98.9916C49.9394 93.1828 49.9394 86.8923 51.9111 81.0835V69.03H36.2664C32.9679 75.5484 31.25 82.7424 31.25 90.0376C31.25 97.3327 32.9679 104.527 36.2664 111.045L51.9111 98.9916Z" fill="#0F0F0F"/>
<path d="M78.3587 61.7719C85.0772 61.6629 91.5689 64.1838 96.4309 68.7896L109.877 55.4365C101.351 47.4837 90.0554 43.1174 78.3587 43.2531C69.6264 43.2535 61.0659 45.6641 53.6332 50.2159C46.2004 54.7677 40.1879 61.2815 36.2668 69.03L51.9114 81.0835C55.641 69.9982 66.0707 61.7719 78.3587 61.7719Z" fill="#0F0F0F"/>
<path d="M166.168 98.2111V131.188H155.633V49.7501H183.572C186.907 49.6809 190.223 50.2683 193.328 51.4784C196.433 52.6884 199.266 54.4972 201.664 56.8003C204.086 58.9635 206.013 61.6165 207.317 64.581C208.62 67.5455 209.27 70.7527 209.221 73.9871C209.291 77.2388 208.651 80.4669 207.347 83.4503C206.042 86.4336 204.104 89.1016 201.664 91.2714C196.779 95.8978 190.748 98.2089 183.572 98.2046H166.168V98.2111ZM166.168 59.7763V88.2044H183.834C185.771 88.2614 187.698 87.9163 189.493 87.1913C191.288 86.4663 192.91 85.3772 194.257 83.9938C195.597 82.7003 196.662 81.1532 197.389 79.4439C198.116 77.7346 198.491 75.8979 198.491 74.0423C198.491 72.1867 198.116 70.35 197.389 68.6407C196.662 66.9314 195.597 65.3843 194.257 64.0909C192.927 62.6783 191.31 61.5625 189.513 60.8176C187.716 60.0726 185.781 59.7155 183.834 59.7698H166.168V59.7763Z" fill="#0F0F0F"/>
<path d="M233.496 73.6494C241.283 73.6494 247.429 75.7157 251.935 79.8484C256.441 83.981 258.692 89.6471 258.687 96.8467V131.188H248.611V123.455H248.153C243.791 129.823 237.989 133.007 230.748 133.007C224.567 133.007 219.396 131.188 215.234 127.549C213.237 125.879 211.641 123.787 210.561 121.427C209.481 119.066 208.945 116.496 208.992 113.904C208.992 108.138 211.186 103.553 215.575 100.148C219.963 96.7428 225.821 95.036 233.149 95.0273C239.405 95.0273 244.556 96.1645 248.604 98.4387V96.0475C248.616 94.2802 248.232 92.5324 247.479 90.9309C246.727 89.3293 245.625 87.9142 244.253 86.7881C241.467 84.2921 237.837 82.9302 234.085 82.9738C228.201 82.9738 223.544 85.4387 220.116 90.3684L210.837 84.5658C215.941 77.2882 223.494 73.6494 233.496 73.6494ZM219.867 114.131C219.86 115.462 220.173 116.776 220.781 117.963C221.389 119.15 222.273 120.175 223.361 120.954C225.691 122.774 228.583 123.738 231.546 123.683C235.992 123.675 240.253 121.918 243.396 118.796C246.886 115.535 248.631 111.707 248.631 107.315C245.346 104.716 240.766 103.416 234.89 103.416C230.611 103.416 227.043 104.441 224.185 106.49C221.3 108.569 219.867 111.097 219.867 114.131Z" fill="#0F0F0F"/>
<path d="M316.528 75.4692L281.352 155.75H270.478L283.531 127.66L260.401 75.4692H271.852L288.569 115.496H288.798L305.058 75.4692H316.528Z" fill="#0F0F0F"/>
</svg>
