<svg width="350" height="200" viewBox="0 0 350 200" fill="none" xmlns="http://www.w3.org/2000/svg">
<path fill-rule="evenodd" clip-rule="evenodd" d="M184.229 67.1962L165.332 70.4406V58.1842L184.229 55V67.1962ZM223.526 73.9852C216.148 73.9852 211.405 76.7488 208.77 78.6714L207.791 74.9464H191.229V145L210.05 141.816L210.125 124.813C212.835 126.375 216.825 128.598 223.45 128.598C236.926 128.598 249.198 119.946 249.198 100.901C249.122 83.4778 236.7 73.9852 223.526 73.9852ZM219.008 115.38C214.567 115.38 211.932 114.118 210.125 112.556L210.05 90.2664C212.007 88.5241 214.717 87.3225 219.008 87.3225C225.859 87.3225 230.602 93.4507 230.602 101.321C230.602 109.372 225.934 115.38 219.008 115.38ZM308.522 101.502C308.522 86.1213 299.187 73.9852 281.345 73.9852C263.427 73.9852 252.586 86.1213 252.586 101.382C252.586 119.466 265.384 128.598 283.754 128.598C292.713 128.598 299.488 126.976 304.607 124.693V112.677C299.488 114.719 293.616 115.981 286.163 115.981C278.86 115.981 272.386 113.938 271.558 106.849H308.372C308.372 106.518 308.399 105.766 308.43 104.899C308.472 103.721 308.522 102.332 308.522 101.502ZM271.331 95.794C271.331 89.0049 276.526 86.1812 281.269 86.1812C285.861 86.1812 290.755 89.0049 290.755 95.794H271.331ZM165.331 75.0069H184.227V127.577H165.331V75.0069ZM143.877 75.007L145.081 79.4529C149.523 72.9643 158.331 74.286 160.74 75.007V88.8254C158.407 88.1645 150.878 87.3234 146.436 91.9496V127.577H127.615V75.007H143.877ZM107.438 61.9691L89.0687 65.0932L88.9935 113.217C88.9935 122.109 97.35 128.658 108.492 128.658C114.665 128.658 119.182 127.757 121.667 126.675V114.479C119.258 115.26 107.363 118.024 107.363 109.132V87.8035H121.667V75.0064H107.363L107.438 61.9691ZM62.9461 87.0225C58.956 87.0225 56.5469 87.9237 56.5469 90.2669C56.5469 92.8252 60.693 93.9506 65.8367 95.3467C74.2221 97.6228 85.2589 100.619 85.3055 111.715C85.3055 122.47 74.5399 128.658 58.8807 128.658C52.4063 128.658 45.3296 127.637 38.3281 125.234V110.934C44.652 113.698 52.6321 115.741 58.8807 115.741C63.0967 115.741 66.108 114.84 66.108 112.076C66.108 109.242 61.6136 107.947 56.1876 106.383C47.9241 104.002 37.5 100.997 37.5 90.9878C37.5 80.3536 47.6634 73.9852 62.9461 73.9852C69.1947 73.9852 75.368 74.7662 81.6166 76.7488V90.8677C75.895 88.4044 68.6677 87.0225 62.9461 87.0225Z" fill="#0F0F0F"/>
</svg>
