<svg width="350" height="200" viewBox="0 0 350 200" fill="none" xmlns="http://www.w3.org/2000/svg">
<path fill-rule="evenodd" clip-rule="evenodd" d="M25.4 51.7549H64.4997C69.7994 51.9588 74.0998 53.7094 75.4992 59.892L83.9957 104.364C83.997 104.369 83.9982 104.373 83.9995 104.377L86.6002 117.765L110.4 51.7549H136.097L97.8987 148.455H72.1999L50.5395 64.3422C43.066 59.8419 34.5365 56.2225 25 53.7108L25.4 51.7549Z" fill="#0F0F0F"/>
<path fill-rule="evenodd" clip-rule="evenodd" d="M286.597 51.7549H305.394L325 148.556H302.499C302.499 148.556 300.297 137.434 299.599 134.035H268.397C267.495 136.608 263.297 148.556 263.297 148.556H237.797L273.895 59.7866C276.396 53.5041 280.8 51.7549 286.597 51.7549ZM285.099 87.1793C285.099 87.1793 277.398 108.703 275.397 114.264H295.597C294.597 109.424 289.995 86.2526 289.995 86.2526L288.297 77.9116C287.582 80.0595 286.547 83.0125 285.85 85.0042C285.377 86.3544 285.059 87.2628 285.099 87.1793Z" fill="#0F0F0F"/>
<path d="M243.095 54.1213C238.302 52.1626 230.699 50 221.298 50C197.299 50 180.399 63.1809 180.295 82.0257C180.096 95.9294 192.395 103.652 201.594 108.288C210.996 113.025 214.192 116.117 214.192 120.339C214.097 126.825 206.595 129.814 199.598 129.814C189.896 129.814 184.697 128.273 176.796 124.665L173.596 123.118L170.196 144.848C175.895 147.523 186.396 149.896 197.299 150C222.798 150 239.399 137.023 239.596 116.941C239.693 105.921 233.199 97.4774 219.197 90.5776C210.697 86.1484 205.492 83.1618 205.492 78.6299C205.592 74.51 209.895 70.2902 219.489 70.2902C227.39 70.0835 233.195 72.0394 237.592 73.9967L239.79 75.0246L243.095 54.1213Z" fill="#0F0F0F"/>
<path d="M155 148.557H130.698L145.898 51.7549H170.199L155 148.557Z" fill="#0F0F0F"/>
</svg>
