<svg width="350" height="200" viewBox="0 0 350 200" fill="none" xmlns="http://www.w3.org/2000/svg">
<path d="M40.1334 50.0063L25 86.3674H34.8526L37.6449 79.0863H53.8779L56.6558 86.3674H66.7254L51.6065 50.0063H40.1334ZM45.7325 58.4687L50.6805 71.1921H40.77L45.7325 58.4687Z" fill="#0F0F0F"/>
<path d="M67.7675 86.3611V50L81.7687 50.0537L89.9122 73.4971L97.8608 50H111.75V86.3611H102.953V59.5687L93.629 86.3611H85.9145L76.564 59.5687V86.3611H67.7675Z" fill="#0F0F0F"/>
<path d="M117.769 86.3611V50H146.473V58.1334H126.658V64.3531H146.011V72.008H126.658V78.4669H146.473V86.3611H117.769Z" fill="#0F0F0F"/>
<path d="M151.566 50.0059V86.367H160.362V73.4492H164.066L174.613 86.367H185.363L173.788 72.9708C178.539 72.5565 183.439 68.3434 183.439 61.8023C183.439 54.1507 177.627 50.0059 171.141 50.0059H151.566ZM160.362 58.1392H170.417C172.83 58.1392 174.584 60.0891 174.584 61.9667C174.584 64.3824 172.311 65.7942 170.548 65.7942H160.362V58.1392Z" fill="#0F0F0F"/>
<path d="M196.011 86.3611H187.029V50H196.011V86.3611Z" fill="#0F0F0F"/>
<path d="M217.308 86.3611H215.37C205.989 86.3611 200.294 78.7241 200.294 68.3301C200.294 57.6792 205.925 50 217.771 50H227.494V58.6118H217.416C212.607 58.6118 209.206 62.4899 209.206 68.4198C209.206 75.4615 213.095 78.4191 218.697 78.4191H221.012L217.308 86.3611Z" fill="#0F0F0F"/>
<path d="M236.448 50.0059L221.315 86.367H231.168L233.96 79.0858H250.193L252.971 86.367H263.04L247.922 50.0059H236.448ZM242.048 58.4682L246.996 71.1916H237.085L242.048 58.4682Z" fill="#0F0F0F"/>
<path d="M264.068 86.3611V50H275.252L289.532 72.8453V50H298.328V86.3611H287.506L272.865 62.9178V86.3611H264.068Z" fill="#0F0F0F"/>
<path d="M89.0648 149.994V113.633H117.769V121.766H97.9539V127.986H117.306V135.641H97.9539V142.1H117.769V149.994H89.0648Z" fill="#0F0F0F"/>
<path d="M229.715 149.994V113.633H258.419V121.766H238.604V127.986H257.864V135.641H238.604V142.1H258.419V149.994H229.715Z" fill="#0F0F0F"/>
<path d="M118.883 149.994L132.859 132.038L118.55 113.633H129.633L138.154 125.011L146.705 113.633H157.353L143.233 131.813L157.234 149.994H146.154L137.879 138.796L129.806 149.994H118.883Z" fill="#0F0F0F"/>
<path d="M158.279 113.639V150H167.307V138.517H176.566C184.401 138.517 190.34 134.222 190.34 125.869C190.34 118.949 185.682 113.639 177.709 113.639H158.279ZM167.307 121.862H177.058C179.589 121.862 181.399 123.465 181.399 126.048C181.399 128.475 179.599 130.234 177.029 130.234H167.307V121.862Z" fill="#0F0F0F"/>
<path d="M194.159 113.633V149.994H202.955V137.076H206.659L217.206 149.994H227.956L216.381 136.598C221.132 136.183 226.031 131.97 226.031 125.429C226.031 117.778 220.22 113.633 213.734 113.633H194.159ZM202.955 121.766H213.01C215.422 121.766 217.177 123.716 217.177 125.594C217.177 128.009 214.904 129.421 213.141 129.421H202.955V121.766Z" fill="#0F0F0F"/>
<path d="M262.494 149.994V142.1H280.098C282.703 142.1 283.831 140.645 283.831 139.05C283.831 137.521 282.707 135.976 280.098 135.976H272.143C265.228 135.976 261.377 131.622 261.377 125.085C261.377 119.255 264.904 113.633 275.179 113.633H292.309L288.605 121.814H273.79C270.958 121.814 270.087 123.35 270.087 124.816C270.087 126.324 271.164 127.986 273.327 127.986H281.661C289.369 127.986 292.714 132.504 292.714 138.422C292.714 144.783 288.987 149.994 281.241 149.994H262.494Z" fill="#0F0F0F"/>
<path d="M294.779 149.994V142.1H312.384C314.989 142.1 316.117 140.645 316.117 139.05C316.117 137.521 314.992 135.976 312.384 135.976H304.429C297.514 135.976 293.662 131.622 293.662 125.085C293.662 119.255 297.189 113.633 307.465 113.633H324.595L320.891 121.814H306.076C303.244 121.814 302.372 123.35 302.372 124.816C302.372 126.324 303.449 127.986 305.613 127.986H313.946C321.655 127.986 325 132.504 325 138.422C325 144.783 321.273 149.994 313.527 149.994H294.779Z" fill="#0F0F0F"/>
</svg>
